<?xml version="1.0" standalone="no"?>
<!DOCTYPE svg PUBLIC "-//W3C//DTD SVG 20010904//EN"
 "http://www.w3.org/TR/2001/REC-SVG-20010904/DTD/svg10.dtd">
<svg version="1.0" xmlns="http://www.w3.org/2000/svg"
 width="347.000000pt" height="347.000000pt" viewBox="0 0 347.000000 347.000000"
 preserveAspectRatio="xMidYMid meet">
<metadata>
Created by potrace 1.14, written by Peter Selinger 2001-2017
</metadata>
<g transform="translate(0.000000,347.000000) scale(0.100000,-0.100000)"
fill="#000000" stroke="none">
<path d="M1525 3135 c-381 -65 -689 -277 -868 -597 -86 -154 -121 -281 -187
-678 -17 -102 -35 -207 -40 -235 -6 -27 -26 -135 -46 -240 -19 -104 -42 -215
-50 -246 -16 -63 -57 -255 -79 -369 -15 -76 -79 -534 -90 -645 -3 -33 -8 -75
-11 -93 l-5 -32 372 2 372 3 32 89 32 89 339 -4 c186 -1 456 -2 600 -1 l260 1
29 -89 29 -90 513 0 513 0 1 23 c3 52 -2 711 -6 807 -2 58 -7 164 -10 235 -12
260 -31 476 -57 633 -13 76 -33 102 -24 30 3 -24 10 -119 16 -213 6 -93 12
-190 15 -215 2 -25 5 -88 6 -141 1 -83 -3 -107 -30 -186 -97 -287 -156 -390
-249 -433 -58 -28 -127 -23 -198 13 -39 20 -68 49 -139 142 -49 64 -120 164
-156 223 -42 68 -73 108 -85 110 -11 1 -65 -27 -122 -63 -276 -177 -491 -243
-715 -217 -205 23 -312 63 -492 181 -145 96 -221 134 -251 127 -13 -4 -64 -45
-114 -91 -84 -81 -91 -85 -134 -85 -53 0 -78 25 -100 100 -30 101 -30 148 3
311 17 85 56 298 86 474 86 493 120 611 229 790 262 433 720 625 1308 549 187
-24 337 -82 506 -196 180 -121 365 -347 461 -560 43 -97 97 -270 126 -405 23
-109 25 -113 20 -48 -43 525 -430 1037 -903 1194 -131 44 -191 52 -412 56
-153 3 -238 0 -295 -10z"/>
<path d="M1110 1953 c-39 -27 -49 -45 -50 -86 0 -43 22 -92 45 -101 9 -3 29
-6 45 -6 16 0 36 3 45 6 21 8 45 56 45 91 0 38 -34 91 -66 103 -33 13 -35 13
-64 -7z"/>
<path d="M2025 1951 c-36 -15 -58 -49 -63 -100 -4 -46 -2 -53 27 -82 28 -27
37 -31 68 -26 45 8 70 30 82 75 14 48 3 88 -31 117 -31 26 -49 29 -83 16z"/>
<path d="M1682 1842 c-26 -13 -39 -14 -63 -5 -21 8 -39 9 -60 1 -22 -8 -38 -7
-55 1 -32 14 -34 14 -34 -4 0 -31 41 -43 133 -41 75 3 92 7 110 25 30 29 11
43 -31 23z"/>
<path d="M3142 1800 c0 -14 2 -19 5 -12 2 6 2 18 0 25 -3 6 -5 1 -5 -13z"/>
</g>
</svg>
